<svg xmlns="http://www.w3.org/2000/svg" xmlns:xlink="http://www.w3.org/1999/xlink" viewBox="0 0 32 32">
    <defs>
        <symbol viewBox="0 0 33 32" id="default" width="100%" height="100%">
            <path fill="#3b87c8" d="M13.374 29.064a.94.94 0 0 1-.941-.941V6.476l-7.285 6.899a.942.942 0 0 1-1.299-1.364l8.876-8.424a.94.94 0 0 1 1.59.681v23.855a.94.94 0 0 1-.941.941zM20.904 29.355h-.008a.94.94 0 0 1-.375-.078.943.943 0 0 1-.559-.86V3.944a.94.94 0 1 1 1.882 0v22.287l7.238-6.842a.94.94 0 0 1 1.289 1.366l-8.818 8.338a.943.943 0 0 1-.649.264z"></path>
        </symbol>
        <symbol viewBox="0 0 38 32" id="selected" width="100%" height="100%">
            <path fill="#3190e8" d="M32.291 2.327c.582-.582 1.455-.582 2.036 0l2.036 2.036c.582.582.582 1.455 0 2.036L13.818 29.09c-.582.582-1.455.582-2.036 0L1.455 18.908c-.582-.582-.582-1.455 0-2.036l2.036-2.036c.582-.582 1.455-.582 2.036 0l7.273 7.273L32.291 2.327z"></path>
        </symbol>
    </defs>
</svg>
